<?xml version="1.0" encoding="UTF-8" standalone="no"?>
<!-- Generator: Adobe Illustrator 17.0.1, SVG Export Plug-In . SVG Version: 6.00 Build 0)  -->

<svg
   version="1.1"
   x="0px"
   y="0px"
   width="86px"
   height="86px"
   viewBox="0 0 86 86"
   enable-background="new 0 0 86 86"
   xml:space="preserve"
   id="svg3018"
   sodipodi:docname="harbour-plants2.svg"
   inkscape:version="1.2.1 (9c6d41e410, 2022-07-14)"
   xmlns:inkscape="http://www.inkscape.org/namespaces/inkscape"
   xmlns:sodipodi="http://sodipodi.sourceforge.net/DTD/sodipodi-0.dtd"
   xmlns="http://www.w3.org/2000/svg"
   xmlns:svg="http://www.w3.org/2000/svg"><defs
   id="defs3022" /><sodipodi:namedview
   id="namedview3020"
   pagecolor="#ffffff"
   bordercolor="#666666"
   borderopacity="1.0"
   inkscape:showpageshadow="2"
   inkscape:pageopacity="0.0"
   inkscape:pagecheckerboard="0"
   inkscape:deskcolor="#d1d1d1"
   showgrid="false"
   inkscape:zoom="1.4287791"
   inkscape:cx="-22.746694"
   inkscape:cy="43.743642"
   inkscape:window-width="1350"
   inkscape:window-height="1160"
   inkscape:window-x="922"
   inkscape:window-y="47"
   inkscape:window-maximized="0"
   inkscape:current-layer="svg3018" />
<g
   id="Layer_2"
   display="none">
	<rect
   x="-21"
   y="-19"
   display="inline"
   fill="#32332F"
   width="497"
   height="300"
   id="rect2986" />
</g>
<g
   id="Layer_1">
	<linearGradient
   id="SVGID_1_"
   gradientUnits="userSpaceOnUse"
   x1="12.8065"
   y1="73.1935"
   x2="85.2829"
   y2="0.7171"
   gradientTransform="matrix(-1,0,0,1,86,0)">
		<stop
   offset="0"
   style="stop-color:#15621a;stop-opacity:1;"
   id="stop2989" />
		<stop
   offset="0.99510002"
   style="stop-color:#3ab14a;stop-opacity:1;"
   id="stop2991" />
	</linearGradient>
	<path
   fill="url(#SVGID_1_)"
   d="M 0.301,1.723 C 0.301,0.937 0.938,0.3 1.724,0.3 c 0,0 40.641,0 41.276,0 C 66.583,0.3 85.7,19.417 85.7,43 85.7,66.582 66.583,85.7 43,85.7 19.417,85.7 0.3,66.582 0.3,43 0.3,42.364 0.301,1.723 0.301,1.723 Z"
   id="path2994"
   style="fill:url(#SVGID_1_)" />
	
	
<path
   d="m 46.955555,73.478656 c 1.308562,-0.73545 1.41262,-1.10242 1.379065,-4.86333 -0.02786,-3.12274 -0.281126,-7.84799 -0.466242,-8.69884 -0.254835,-1.17132 1.495796,-6.34822 3.108956,-9.19368 0.403798,-0.71227 1.10891,-1.95549 1.566916,-2.76272 1.090755,-1.92246 3.482529,-5.44714 4.802917,-7.07791 1.232675,-1.52244 4.254339,-4.58374 5.120502,-5.18766 l 0.604344,-0.42138 -0.627705,0.77487 c -1.671697,2.06359 -3.7302,5.75057 -4.433419,7.94066 -0.314956,0.98091 -0.723322,2.86234 -0.723322,3.33253 0,0.0939 0.702224,0.12888 1.683533,0.0839 1.96164,-0.0899 3.835685,-0.65561 5.479677,-1.65429 1.284272,-0.78015 3.250725,-2.70941 4.199578,-4.12015 1.741735,-2.58958 3.421041,-6.88517 4.242161,-10.85127 0.459534,-2.21962 1.048089,-6.88951 0.912743,-7.24221 -0.255169,-0.66496 -8.486364,0.77027 -12.667337,2.20873 -3.631315,1.24936 -6.163252,2.74734 -8.344397,4.93687 -2.803345,2.81411 -3.974873,6.22652 -3.441769,10.02514 0.11329,0.80723 0.238594,1.70079 0.278452,1.9857 0.06048,0.43229 -0.08912,0.70373 -0.904079,1.64037 -0.537102,0.61729 -1.402727,1.76827 -1.92361,2.55771 -0.520881,0.78945 -0.969024,1.41107 -0.995871,1.38136 -0.02685,-0.0297 -0.36562,-1.00542 -0.752829,-2.16828 -0.750914,-2.25512 -2.128498,-5.36078 -3.10622,-7.00274 l -0.596371,-1.00152 0.413857,-1.7612 c 0.346067,-1.47271 0.413856,-2.21372 0.413856,-4.52391 0,-3.15315 -0.219531,-4.26496 -1.295593,-6.56146 -1.678895,-3.58306 -4.898896,-6.50752 -9.671017,-8.78339 -4.624492,-2.20546 -11.465461,-3.8736 -17.244621,-4.20502 l -1.79271,-0.1028 0.11982,1.3655 c 0.74911,8.53736 3.12542,16.54781 6.4121,21.61499 1.1573,1.78425 4.02655,4.69208 5.462353,5.53581 2.181533,1.28196 5.037575,2.10092 7.326744,2.10092 h 0.927068 l -10e-4,-0.82019 c -0.0038,-3.0319 -1.659625,-9.49892 -3.434365,-13.41303 -0.294798,-0.6502 -0.536009,-1.22583 -0.536009,-1.27918 0,-0.16913 1.570575,2.05252 3.031951,4.28884 4.819001,7.37445 8.250602,14.95033 9.574078,21.13653 1.028788,4.80877 1.716372,11.44973 1.722911,16.64059 0.0027,2.18315 0.184609,2.99968 0.82944,3.72413 0.750028,0.84263 2.257709,1.03235 3.345501,0.42098 z"
   style="fill:#ffffff;stroke-width:0.17267"
   id="path555" /></g>
</svg>
