<?xml version="1.0" encoding="UTF-8" standalone="no"?>
<!-- Generator: Adobe Illustrator 17.0.1, SVG Export Plug-In . SVG Version: 6.00 Build 0)  -->

<svg
   version="1.1"
   x="0px"
   y="0px"
   width="152"
   height="152"
   viewBox="0 0 152 152"
   enable-background="new 0 0 86 86"
   xml:space="preserve"
   id="svg21"
   sodipodi:docname="cover-background.svg"
   inkscape:version="1.2.1 (9c6d41e410, 2022-07-14)"
   xmlns:inkscape="http://www.inkscape.org/namespaces/inkscape"
   xmlns:sodipodi="http://sodipodi.sourceforge.net/DTD/sodipodi-0.dtd"
   xmlns="http://www.w3.org/2000/svg"
   xmlns:svg="http://www.w3.org/2000/svg"><defs
   id="defs25" /><sodipodi:namedview
   id="namedview23"
   pagecolor="#ffffff"
   bordercolor="#666666"
   borderopacity="1.0"
   inkscape:showpageshadow="2"
   inkscape:pageopacity="0.0"
   inkscape:pagecheckerboard="true"
   inkscape:deskcolor="#d1d1d1"
   showgrid="false"
   inkscape:zoom="2.8575581"
   inkscape:cx="18.547304"
   inkscape:cy="64.390642"
   inkscape:window-width="1738"
   inkscape:window-height="811"
   inkscape:window-x="1218"
   inkscape:window-y="167"
   inkscape:window-maximized="0"
   inkscape:current-layer="svg21" />
<g
   id="Layer_2"
   display="none">
</g>

<path
   d="m 82.506353,135.03111 c 2.59082,-1.45611 2.796827,-2.18266 2.730402,-9.62884 -0.05524,-6.18267 -0.556606,-15.53813 -0.923102,-17.22271 -0.504555,-2.31908 2.961494,-12.568759 6.155367,-18.202446 0.799479,-1.410214 2.195516,-3.871648 3.102324,-5.469872 2.159561,-3.806252 6.895016,-10.784718 9.509236,-14.013457 2.44055,-3.014259 8.42311,-9.075285 10.13801,-10.270978 l 1.19652,-0.834284 -1.24277,1.534154 c -3.30978,4.085674 -7.38537,11.385475 -8.77767,15.721605 -0.62358,1.94209 -1.43209,5.667108 -1.43209,6.598031 0,0.185911 1.39031,0.255167 3.3332,0.166112 3.88382,-0.177992 7.59421,-1.298033 10.84914,-3.275306 2.54271,-1.544609 6.43606,-5.364324 8.31467,-8.157429 3.44845,-5.127074 6.77329,-13.631854 8.39902,-21.484282 0.90981,-4.394595 2.07508,-13.640447 1.80712,-14.338753 -0.50521,-1.316545 -16.80205,1.525047 -25.0799,4.373035 -7.18958,2.47359 -12.202531,5.439421 -16.52096,9.774441 -5.550294,5.571618 -7.869791,12.327802 -6.814294,19.848639 0.224302,1.598223 0.472382,3.36737 0.5513,3.93146 0.119783,0.855885 -0.176408,1.393305 -1.789976,3.247746 -1.063397,1.222164 -2.777246,3.500974 -3.808529,5.063975 -1.031283,1.563022 -1.918569,2.793759 -1.97171,2.734936 C 80.1786,85.068085 79.507775,83.13627 78.741144,80.833939 77.254407,76.369058 74.526955,70.220204 72.591181,66.96931 l -1.180745,-1.982896 0.819376,-3.486976 c 0.685179,-2.915799 0.819396,-4.382914 0.819396,-8.956828 0,-6.242879 -0.434645,-8.444136 -2.565121,-12.990945 C 67.160056,32.457613 60.784821,26.667514 51.336566,22.16155 42.180601,17.79499 28.636258,14.492262 17.194177,13.836088 l -3.549362,-0.203532 0.23723,2.703535 c 1.483153,16.903003 6.187977,32.762784 12.69523,42.795225 2.291322,3.532612 7.972111,9.289785 10.814832,10.960274 4.319202,2.538136 9.973836,4.159583 14.506133,4.159583 h 1.835473 l -0.002,-1.623883 c -0.0079,-6.002817 -3.285859,-18.806782 -6.799642,-26.556275 -0.583671,-1.287322 -1.061239,-2.427004 -1.061239,-2.532631 0,-0.334859 3.10957,4.063756 6.002916,8.491416 9.541073,14.600573 16.335251,29.599955 18.955591,41.847928 2.036887,9.520822 3.398218,22.669162 3.411166,32.946482 0.0059,4.32238 0.365507,5.93902 1.642197,7.37335 1.484974,1.66831 4.470009,2.04394 6.62371,0.83349 z"
   style="fill:#ffffff;fill-opacity:0.75;stroke:#fff;stroke-width:5.93966;stroke-linecap:round;stroke-linejoin:round;stroke-dasharray:none;stroke-opacity:1"
   id="path555-8" /></svg>
